<?xml version="1.0" encoding="utf-8"?>
<!-- Generator: Adobe Illustrator 27.0.1, SVG Export Plug-In . SVG Version: 6.00 Build 0)  -->
<svg version="1.1" id="Layer_1" xmlns="http://www.w3.org/2000/svg" xmlns:xlink="http://www.w3.org/1999/xlink" x="0px" y="0px"
	 viewBox="0 0 238.6 86" style="enable-background:new 0 0 238.6 86;" xml:space="preserve">
<g id="Layer_2_00000160907377231494603850000001699845715628892340_">
	<g id="Layer_1-2">
		<path d="M34.4,2.4v34.1c0,0.3-0.2,0.6-0.5,0.7c-0.1,0-0.1,0-0.2,0h-4.4c-0.3,0-0.6-0.2-0.6-0.6c0,0,0-0.1,0-0.1V17.2
			c0-2.7,0.2-7,0.4-9.7h-0.2L21,36.4c-0.1,0.5-0.5,0.9-1.1,0.9h-4.2c-0.5,0-1-0.3-1.1-0.9L6.8,7.6H6.6c0.2,2.6,0.4,6.9,0.4,9.7v19.3
			c0,0.3-0.2,0.6-0.5,0.7c0,0-0.1,0-0.1,0H2c-0.3,0-0.6-0.3-0.6-0.6c0,0,0,0,0-0.1V2.4C1.4,2,1.7,1.6,2.1,1.5c0.1,0,0.1,0,0.2,0h7.1
			c0.5-0.1,1.1,0.3,1.1,0.9c0,0,0,0,0,0L15.4,20c1.1,4.1,1.9,6.9,2.5,10.5h0.1c0.6-3.6,1.4-7.1,2.4-10.5l4.8-17.5
			c0-0.6,0.5-1,1.1-0.9c0,0,0,0,0,0h7c0.5-0.1,0.9,0.3,1,0.8C34.4,2.3,34.4,2.4,34.4,2.4z"/>
		<path d="M60.9,18.6v17.9c0,0.3-0.2,0.7-0.6,0.7c0,0-0.1,0-0.1,0h-4.3c-0.3,0-0.7-0.2-0.7-0.6c0,0,0-0.1,0-0.1v-3.2
			c-1.6,2.7-4.5,4.4-7.7,4.4c-5.1,0-8.3-3.3-8.3-8.1s3.2-7.7,10.2-8.2c1.9-0.1,3.7-0.2,5.6-0.1v-2.5c0-3-1.7-4.2-4.5-4.2
			s-3.8,1-4.5,2.9c-0.2,0.5-0.4,0.6-0.9,0.5L40.8,17c-0.4-0.1-0.6-0.4-0.4-0.8c0.8-3.8,4.2-6.4,10.3-6.4C57,9.8,60.9,12.7,60.9,18.6
			z M55,28.6v-3.3c-1.7-0.1-3.3,0-5,0.1c-3.2,0.3-5,1.4-5,4c0,2.2,1.5,3.6,4.1,3.6C51.8,32.9,54.2,31.2,55,28.6z"/>
		<path d="M72.3,20v16.6c0,0.3-0.2,0.7-0.6,0.7c0,0-0.1,0-0.1,0H67c-0.3,0.1-0.7-0.2-0.7-0.5c0-0.1,0-0.1,0-0.2V10.9
			c0-0.3,0.2-0.6,0.6-0.6c0,0,0.1,0,0.1,0h4.6c0.3,0,0.6,0.2,0.7,0.5c0,0,0,0.1,0,0.1v3.3c1.8-2.7,4.8-4.4,8.1-4.4
			c5.1,0,7.9,3.7,7.9,9.2v17.6c0.1,0.3-0.2,0.6-0.5,0.7c-0.1,0-0.1,0-0.2,0h-4.7c-0.3,0.1-0.7-0.2-0.7-0.5c0-0.1,0-0.1,0-0.2V20
			c0-2.9-1.4-4.7-4.1-4.7S73.3,17.2,72.3,20z"/>
		<path d="M101.7,4.3v6.2h5.4c0.4,0,0.6,0.2,0.6,0.7v3.5c0,0.5-0.2,0.7-0.6,0.7h-5.4V29c0,2,1.1,2.9,3.3,2.9h2
			c0.3,0,0.6,0.2,0.7,0.5c0,0.1,0,0.1,0,0.2v4c0.1,0.3-0.2,0.6-0.5,0.7c-0.1,0-0.1,0-0.2,0h-3c-5.5,0-8.2-2.9-8.2-7.4V15.4h-3.3
			c-0.3,0.1-0.6-0.2-0.7-0.5c0-0.1,0-0.1,0-0.2v-3.5c-0.1-0.3,0.2-0.7,0.5-0.7c0.1,0,0.1,0,0.2,0h3.4V4.3c0-0.4,0.2-0.7,0.6-0.7
			c0,0,0.1,0,0.1,0h4.5c0.3,0,0.7,0.2,0.7,0.6C101.7,4.3,101.7,4.3,101.7,4.3z"/>
		<path d="M116.8,25.6v1.6c0,3.5,1.8,5.6,5.7,5.7c3.6,0,4.7-1.4,5.7-3.2c0.4-0.6,0.6-0.7,1.3-0.4l3.1,1.6c0.7,0.3,0.7,0.7,0.4,1.3
			c-1.6,3.6-5.4,5.7-10.5,5.7c-7.5,0-11.5-4.4-11.5-10.7v-6.6c0-6.1,3.8-10.7,11.3-10.7c7.2,0,10.9,4.6,10.9,10.6v4.1
			c0,0.8-0.3,1.2-1.2,1.2L116.8,25.6z M116.8,20.2v1.4h10.8v-1.4c0-3.3-1.9-5.5-5.4-5.5S116.8,16.9,116.8,20.2z"/>
		<path d="M144,0.7v35.9c0,0.3-0.2,0.6-0.5,0.7c0,0-0.1,0-0.1,0h-4.6c-0.3,0.1-0.7-0.2-0.7-0.5c0-0.1,0-0.1,0-0.2V0.7
			c0-0.4,0.2-0.7,0.7-0.7h4.6c0.3,0,0.6,0.2,0.7,0.5C144,0.6,144,0.6,144,0.7z"/>
		<path d="M21.2,51h-5.4c1.9,1.2,3.4,3.7,3.4,7.4c0,5.5-3.4,8.8-9.1,8.8H7c-2.2,0-3.2,1.1-3.2,2.3s1,2.3,3.2,2.3h6.1
			c6.2,0,8.5,3.2,8.5,6.7c0,4.1-3.1,7.5-10.9,7.5C3.1,86,0,82.9,0,78.8c-0.1-2.6,1.4-5,3.8-6.1C2.7,72,2,70.8,2,69.5
			c0.1-1.7,1.2-3.1,2.8-3.5c-2.6-1.5-4-4.2-4-7.8c0-5.6,3.4-9,9.2-9h11.2c0.3,0,0.4,0.1,0.4,0.5v0.7C21.6,50.9,21.5,51,21.2,51z
			 M8.2,73.7c-4.9,0-6.3,2.4-6.3,4.9c0,3.5,2.7,5.7,8.8,5.7c6.3,0,9.1-2.3,9.1-5.8c0-2.4-1.4-4.8-6.6-4.8H8.2z M10,51
			c-4.6,0-7.3,2.5-7.3,7.1s2.6,7.3,7.5,7.3c4.3,0,7.2-2.1,7.2-7C17.3,53.9,14.9,51,10,51z"/>
		<path d="M38,49.3v1c0,0.3-0.1,0.4-0.5,0.4h-0.4c-4,0-6.6,2.6-8.1,5.9v18.8c0,0.4-0.2,0.4-0.5,0.4h-0.8c-0.3,0-0.5,0-0.5-0.4V49.6
			c0-0.4,0.2-0.4,0.5-0.4h0.9c0.2,0,0.5,0,0.5,0.4V54c1.6-3.2,5-5.2,8.6-5.2C37.8,48.8,38,48.9,38,49.3z"/>
		<path d="M61.2,58.5v8c0,6-3.6,9.8-9.9,9.8s-9.9-3.8-9.9-9.8v-8c0-6,3.6-9.8,9.9-9.8S61.2,52.5,61.2,58.5z M43.2,58.6v7.8
			c0,5.5,3.1,8.1,8,8.1s8.1-2.6,8.1-8.1v-7.8c0-5.5-3.1-8.1-8.1-8.1S43.3,53.1,43.2,58.6L43.2,58.6z"/>
		<path d="M67.7,68V49.6c0-0.3,0.1-0.4,0.5-0.4H69c0.4,0,0.5,0.2,0.5,0.4v18.1c0,4.3,1.9,6.8,6.2,6.8c3.5,0,6.8-2.4,8.4-6V49.6
			c0-0.3,0.1-0.4,0.5-0.4h0.8c0.4,0,0.5,0.2,0.5,0.4v25.7c0,0.3-0.1,0.4-0.5,0.4h-0.8c-0.4,0-0.5-0.1-0.5-0.4v-3.9
			c-1.9,3-5.1,4.8-8.6,4.8C70.3,76.3,67.7,72.8,67.7,68z"/>
		<path d="M93.5,85.6c-0.2,0-0.4-0.1-0.4-0.3c0,0,0,0,0-0.1V49.6c0-0.4,0.2-0.4,0.5-0.4h0.9c0.2,0,0.5,0,0.5,0.4v3.6
			c1.7-2.9,4.9-4.6,8.2-4.5c5.8,0,9.4,3.8,9.4,9.8v8c0,6-3.6,9.8-9.4,9.8c-3.4,0.2-6.5-1.6-8.2-4.5v13.3c0,0.3-0.1,0.4-0.4,0.4H93.5
			z M110.7,66.4v-7.8c0-5.5-3.1-8.1-7.6-8.1c-4.3-0.2-7.9,3.2-8.1,7.5c0,0.2,0,0.5,0,0.7v7.7c-0.2,4.3,3.1,8,7.4,8.2
			c0.2,0,0.4,0,0.6,0C107.6,74.4,110.7,71.8,110.7,66.4z"/>
		<path d="M207.4,15.8c-1.9-3.2-6.1-4.2-9.2-2.3c-0.9,0.6-1.7,1.3-2.3,2.3l-19.8,31.7l-2.6,4.1c-11.6,18.4-17,26.9-21.1,30.8h74.4
			c6.5,0,11.7-5.3,11.7-11.8c0-2.1-0.6-4.2-1.7-6L207.4,15.8z"/>
		<path d="M136.7,78.3c1.4,2.5,4.1,4.1,7,4.1c6.6,0,8.2-2.4,27.1-32.5l2.1-3.2c-4.2-6.8-7.2-11.8-7.2-11.8c-1.3-2.1-4-2.8-6.1-1.5
			c-0.6,0.4-1.1,0.9-1.5,1.5l-21.3,35.4C135.3,72.7,135.3,75.8,136.7,78.3z"/>
	</g>
</g>
</svg>
