<?xml version="1.0" encoding="utf-8"?>
<svg version="1.1" id="Layer_1" xmlns="http://www.w3.org/2000/svg" xmlns:xlink="http://www.w3.org/1999/xlink" x="0px" y="0px"
	 viewBox="0 0 522 129.7" style="enable-background:new 0 0 522 129.7;" xml:space="preserve">
<g>
	<path d="M18,121.4l14.7-14.7V50.2c0-11.7,9.6-21.3,21.3-21.3h38.2c11.7,0,21.3,9.6,21.3,21.3v19.1
		c0,11.7-9.6,21.3-21.3,21.3H55l-14.7,14.7h52c19.8,0,36-16.2,36-36V50.2c0-19.8-16.2-36-36-36H54c-19.8,0-36,16.2-36,36V121.4
		L18,121.4z"/>
	<path d="M37.1,102.2l14.7-14.7V48h42.6v23.5H74.1L59.4,86.2h32.9c9.3,0,16.9-7.6,16.9-16.9V50.2
		c0-9.3-7.6-16.9-16.9-16.9H54c-9.3,0-16.9,7.6-16.9,16.9V102.2L37.1,102.2z"/>
</g>
<g>
	<g>
		<path d="M146.6,98.6V39.5h9.2l1,6.9h0.7c2-2.9,4.5-4.9,7.5-6.1c2.9-1.2,6.2-1.8,9.7-1.8c4.5,0,8.5,0.8,11.8,2.5
			c3.3,1.7,5.9,4.2,7.8,7.5c1.8,3.4,2.8,7.6,2.8,12.7c0,5.1-0.9,9.4-2.7,12.8c-1.8,3.4-4.3,5.9-7.6,7.6c-3.2,1.7-7,2.5-11.3,2.5
			c-2.3,0-4.5-0.2-6.6-0.7c-2.1-0.5-4-1.2-5.7-2.2c-1.7-1-3.2-2.2-4.4-3.6h-0.6v21H146.6z M171.9,74.5c2.8,0,5.2-0.5,7.2-1.5
			c2-1,3.5-2.4,4.6-4.3c1.1-1.9,1.6-4.1,1.6-6.8v-1.2c0-2.7-0.5-5-1.6-6.9c-1.1-1.9-2.6-3.3-4.7-4.3c-2-1-4.5-1.4-7.3-1.4
			c-2.8,0-5.3,0.5-7.3,1.5c-2.1,1-3.7,2.4-4.8,4.3c-1.1,1.9-1.7,4.2-1.7,7v0.7c0,2,0.3,3.9,1,5.5c0.6,1.6,1.6,3,2.8,4.1
			c1.2,1.1,2.7,1.9,4.4,2.5C167.8,74.2,169.7,74.5,171.9,74.5z"/>
		<path d="M204.9,32.4v-9.2h11.4v9.2H204.9z M204.9,83.1V39.5h11.4v43.6H204.9z"/>
		<path d="M243.9,84.1c-3.2,0-5.8-0.4-7.8-1.3c-2-0.9-3.4-2.4-4.3-4.4s-1.4-4.9-1.4-8.5V48.3h-8.4v-8.9h8.7l2.3-12.8
			h8.8v12.8h11.8v8.9h-11.8V69c0,2,0.4,3.6,1.1,4.6c0.7,1,2.4,1.6,5,1.6h5.7v7.5c-0.8,0.3-1.8,0.5-2.9,0.7c-1.2,0.2-2.4,0.4-3.6,0.5
			C245.9,84,244.8,84.1,243.9,84.1z"/>
		<path d="M289.1,84.1c-3.5,0-6.8-0.6-9.7-1.8c-2.9-1.2-5.4-3.2-7.5-6.1h-0.7l-1,6.9h-9.2V23.2h11.4V45h0.6
			c1.2-1.4,2.7-2.6,4.4-3.6c1.7-1,3.6-1.7,5.7-2.2c2.1-0.5,4.3-0.7,6.6-0.7c4.3,0,8.1,0.8,11.3,2.5c3.2,1.7,5.8,4.2,7.6,7.5
			c1.8,3.4,2.7,7.6,2.7,12.8c0,5.1-0.9,9.3-2.8,12.7c-1.9,3.4-4.4,5.9-7.8,7.6C297.6,83.3,293.6,84.1,289.1,84.1z M286.2,74.5
			c2.8,0,5.2-0.5,7.3-1.4c2-1,3.6-2.4,4.7-4.3c1.1-1.9,1.6-4.2,1.6-6.9v-1.2c0-2.7-0.5-5-1.6-6.8c-1.1-1.8-2.6-3.3-4.6-4.3
			c-2-1-4.4-1.5-7.2-1.5c-2.2,0-4.1,0.3-5.8,0.9c-1.7,0.6-3.2,1.4-4.4,2.5c-1.2,1.1-2.1,2.4-2.8,4c-0.6,1.6-1,3.5-1,5.5v0.7
			c0,2.8,0.6,5.1,1.7,7c1.1,1.9,2.7,3.4,4.8,4.3C281,74,283.4,74.5,286.2,74.5z"/>
		<path d="M344.4,84.1c-5.6,0-10.4-0.9-14.4-2.6c-4-1.7-7.1-4.3-9.2-7.7c-2.1-3.4-3.2-7.6-3.2-12.6
			c0-5.1,1.1-9.3,3.2-12.7c2.1-3.4,5.2-5.9,9.2-7.6c4-1.7,8.8-2.5,14.4-2.5c5.6,0,10.4,0.8,14.4,2.5c4,1.7,7.1,4.2,9.2,7.6
			c2.1,3.4,3.2,7.6,3.2,12.7c0,5-1.1,9.2-3.2,12.6c-2.1,3.4-5.2,5.9-9.2,7.7C354.8,83.2,350,84.1,344.4,84.1z M344.4,75.2
			c3.1,0,5.8-0.5,8-1.5c2.2-1,3.9-2.5,5.1-4.5c1.2-2,1.8-4.3,1.8-7.2v-1.7c0-2.9-0.6-5.3-1.8-7.2c-1.2-1.9-2.9-3.4-5.1-4.4
			c-2.2-1-4.9-1.5-8-1.5c-3.1,0-5.8,0.5-8,1.5c-2.2,1-3.9,2.5-5.1,4.4c-1.2,1.9-1.8,4.3-1.8,7.2v1.7c0,2.8,0.6,5.2,1.8,7.2
			c1.2,2,2.9,3.5,5.1,4.5C338.7,74.7,341.3,75.2,344.4,75.2z"/>
		<path d="M370.9,83.1l20.7-22.7l-19.5-20.9h14.6l12.8,13.8h0.6l12.7-13.8h13.7L407,60.6l20.6,22.5h-14.5l-14-15.4h-0.6
			l-13.9,15.4H370.9z"/>
		<path d="M429.5,83.1V72.4h11.4v10.7H429.5z"/>
		<path d="M449,41.2v-7.6h9.4v7.6H449z M449,83.1v-36h9.4v36H449z"/>
		<path d="M487.1,83.9c-4.6,0-8.6-0.7-11.9-2.1c-3.3-1.4-5.8-3.5-7.6-6.3c-1.8-2.8-2.6-6.3-2.6-10.4
			c0-4.2,0.9-7.7,2.6-10.5c1.8-2.8,4.3-4.9,7.6-6.3c3.3-1.4,7.3-2.1,11.9-2.1c4.6,0,8.6,0.7,11.9,2.1c3.3,1.4,5.8,3.5,7.6,6.3
			c1.8,2.8,2.6,6.3,2.6,10.5c0,4.1-0.9,7.6-2.6,10.4c-1.8,2.8-4.3,4.9-7.6,6.3C495.6,83.2,491.7,83.9,487.1,83.9z M487.1,76.6
			c2.6,0,4.8-0.4,6.6-1.3c1.8-0.8,3.3-2.1,4.2-3.7c1-1.6,1.5-3.6,1.5-5.9v-1.4c0-2.4-0.5-4.4-1.5-6c-1-1.6-2.4-2.8-4.2-3.6
			c-1.8-0.8-4-1.2-6.6-1.2c-2.6,0-4.8,0.4-6.6,1.2c-1.8,0.8-3.3,2-4.2,3.6c-1,1.6-1.5,3.6-1.5,6v1.4c0,2.3,0.5,4.3,1.5,5.9
			c1,1.6,2.4,2.9,4.2,3.7C482.3,76.2,484.5,76.6,487.1,76.6z"/>
	</g>
</g>
</svg>
